<?xml version="1.0" standalone="no"?>
<!DOCTYPE svg PUBLIC "-//W3C//DTD SVG 20010904//EN"
 "http://www.w3.org/TR/2001/REC-SVG-20010904/DTD/svg10.dtd">
<svg version="1.0" xmlns="http://www.w3.org/2000/svg"
 width="1602.000000pt" height="743.000000pt" viewBox="0 0 1602.000000 743.000000"
 preserveAspectRatio="xMidYMid meet">

<g transform="translate(0.000000,743.000000) scale(0.100000,-0.100000)"
fill="#000000" stroke="none">
<path d="M0 3715 l0 -3715 8010 0 8010 0 0 3715 0 3715 -8010 0 -8010 0 0
-3715z m175 3435 c4 -7 -2 -9 -18 -5 -35 9 -43 -11 -10 -27 39 -19 38 -53 -1
-53 -17 0 -31 6 -34 15 -5 13 -3 13 11 1 17 -14 47 -9 47 8 0 5 -13 14 -30 20
-28 9 -38 29 -23 44 10 11 51 8 58 -3z m730 0 c4 -7 -2 -9 -18 -5 -35 9 -43
-11 -10 -27 39 -19 38 -53 -1 -53 -17 0 -31 6 -34 15 -5 13 -3 13 11 1 17 -14
47 -9 47 8 0 5 -13 14 -30 20 -28 9 -38 29 -23 44 10 11 51 8 58 -3z m324 -27
c7 -21 15 -45 17 -53 4 -11 1 -10 -9 3 -17 21 -57 23 -57 2 0 -8 -4 -15 -9
-15 -6 0 -4 14 3 33 7 17 16 40 19 50 10 27 23 20 36 -20z m48 -40 c-2 -16 -4
-3 -4 27 0 30 2 43 4 28 2 -16 2 -40 0 -55z m470 55 c-3 -8 -6 -5 -6 6 -1 11
2 17 5 13 3 -3 4 -12 1 -19z m181 10 c7 -7 8 -17 1 -30 -6 -12 -6 -25 1 -38 7
-12 7 -20 1 -20 -5 0 -13 9 -16 20 -9 27 -33 25 -38 -2 -2 -13 -5 1 -6 30 -1
48 1 52 22 52 13 0 28 -5 35 -12z m353 -21 c-14 -14 -14 -54 -1 -60 6 -3 5 -4
-2 -3 -12 3 -30 71 -20 80 2 3 11 2 19 -1 10 -4 11 -9 4 -16z m-2017 -9 c14
-23 -3 -52 -32 -56 -11 -2 -23 -11 -25 -20 -3 -9 -5 8 -6 38 -1 54 0 56 25 55
15 0 32 -8 38 -17z m74 10 c7 -7 12 -25 12 -40 0 -24 -4 -28 -30 -28 -23 0
-30 5 -30 19 0 10 9 21 20 24 11 3 20 10 20 17 0 7 -8 9 -21 5 -15 -5 -19 -4
-15 4 9 14 29 14 44 -1z m78 0 c4 -7 3 -8 -5 -4 -18 11 -40 -12 -34 -35 5 -16
11 -19 30 -14 16 4 22 2 18 -5 -14 -23 -65 -3 -65 26 0 14 27 44 40 44 5 0 12
-5 16 -12z m82 0 c20 -20 14 -38 -13 -38 -14 0 -25 -5 -25 -11 0 -7 10 -9 26
-5 17 5 23 3 19 -4 -14 -23 -65 -3 -65 26 0 14 27 44 39 44 4 0 12 -5 19 -12z
m77 2 c3 -5 0 -7 -8 -4 -8 3 -18 0 -22 -6 -4 -7 2 -14 14 -17 27 -7 28 -43 2
-43 -11 0 -22 4 -25 9 -4 5 3 7 14 4 26 -7 26 14 0 22 -30 9 -25 45 6 45 7 0
16 -4 19 -10z m362 -52 c-2 -13 -4 -3 -4 22 0 25 2 35 4 23 2 -13 2 -33 0 -45z
m91 7 c-2 -39 -7 -51 -22 -53 -10 -2 -22 0 -27 5 -6 6 -1 9 12 9 12 -1 24 4
26 11 3 7 -3 10 -16 6 -13 -3 -23 2 -30 16 -16 30 1 59 34 57 25 -1 26 -4 23
-51z m70 43 c7 -7 12 -25 12 -41 0 -25 -3 -28 -27 -25 -37 4 -42 33 -8 42 14
4 23 11 20 17 -4 5 -16 7 -28 4 -17 -5 -19 -4 -7 4 19 14 23 14 38 -1z m232
-53 c8 0 18 13 21 30 7 30 7 30 8 -6 1 -33 -1 -36 -26 -35 -25 1 -28 5 -30 41
l-1 40 6 -35 c4 -21 13 -35 22 -35z m106 51 c9 -25 12 -51 5 -61 -3 -5 -8 5
-11 23 -7 43 -24 46 -28 5 -4 -44 -22 -42 -22 1 0 33 7 39 43 45 4 0 10 -5 13
-13z m84 0 c17 -21 8 -60 -14 -64 -18 -4 -46 21 -46 39 0 10 29 39 39 39 5 0
14 -7 21 -14z m75 4 c3 -5 0 -7 -8 -4 -8 3 -18 0 -22 -6 -4 -7 2 -14 14 -17
31 -8 28 -43 -4 -43 -14 0 -25 4 -25 9 0 5 9 7 20 4 11 -3 20 -1 20 5 0 6 -9
14 -20 17 -30 9 -25 45 6 45 7 0 16 -4 19 -10z m399 4 c9 -3 16 -15 16 -25 0
-14 -7 -19 -26 -19 -15 0 -23 -4 -18 -11 3 -6 15 -8 27 -5 14 3 17 2 10 -5
-31 -31 -70 23 -43 57 14 16 13 16 34 8z m96 -8 c18 -23 8 -61 -17 -64 -13 -2
-23 -10 -23 -18 0 -8 -4 -14 -8 -14 -5 0 -9 22 -11 49 -2 49 0 52 40 60 4 0
12 -6 19 -13z m78 5 c8 -5 12 -21 10 -37 -2 -23 -8 -29 -28 -29 -20 0 -26 6
-28 29 -3 25 10 46 28 46 3 0 11 -4 18 -9z m64 -3 c-7 -7 -12 -25 -12 -40 0
-15 -4 -28 -10 -28 -5 0 -10 15 -10 34 0 24 5 36 18 39 9 3 19 5 22 6 2 0 -1
-4 -8 -11z m118 1 c12 -8 10 -9 -7 -4 -29 8 -30 -8 -1 -27 12 -8 18 -19 14
-26 -9 -15 -43 -16 -51 -2 -4 7 2 9 19 4 16 -4 26 -2 26 5 0 6 -6 11 -14 11
-22 0 -38 24 -24 38 15 15 19 15 38 1z m-1643 -51 c-3 -8 -6 -5 -6 6 -1 11 2
17 5 13 3 -3 4 -12 1 -19z m1020 -10 c-3 -8 -6 -5 -6 6 -1 11 2 17 5 13 3 -3
4 -12 1 -19z m-1509 -134 c23 -16 30 -44 11 -44 -6 0 -17 7 -26 15 -19 20 -47
16 -51 -7 -2 -11 7 -18 30 -23 62 -13 84 -51 51 -87 -32 -36 -123 -16 -123 28
0 19 29 18 36 -1 4 -9 19 -15 36 -15 43 0 33 30 -17 47 -59 20 -70 48 -35 83
24 24 57 26 88 4z m322 -4 c0 -11 -7 -20 -15 -20 -8 0 -15 9 -15 20 0 11 7 20
15 20 8 0 15 -9 15 -20z m348 -11 c3 -22 7 -25 31 -21 33 5 61 -26 61 -69 0
-38 -27 -57 -82 -57 l-48 0 0 82 c0 46 3 86 7 90 12 12 28 0 31 -25z m610 -61
l3 -86 -50 0 c-41 -1 -54 3 -66 21 -33 47 -4 112 46 105 24 -4 29 -1 29 17 0
25 9 37 24 32 6 -2 12 -40 14 -89z m732 62 c0 -27 2 -29 28 -24 37 7 51 -11
59 -75 5 -47 4 -51 -15 -51 -18 0 -21 7 -24 48 -3 39 -6 47 -23 47 -17 0 -20
-8 -23 -47 -2 -34 -7 -48 -18 -48 -11 0 -14 18 -14 90 0 73 3 90 15 90 10 0
15 -10 15 -30z m-1470 -5 c0 -8 5 -15 10 -15 6 0 10 -7 10 -15 0 -8 -4 -15 -9
-15 -15 0 -19 -50 -5 -65 22 -22 16 -37 -13 -33 -26 3 -28 7 -31 51 -2 26 -7
47 -13 47 -5 0 -9 7 -9 15 0 8 5 15 10 15 6 0 10 7 10 15 0 8 9 15 20 15 11 0
20 -7 20 -15z m1850 0 c0 -8 7 -15 15 -15 8 0 15 -7 15 -15 0 -8 -7 -15 -15
-15 -10 0 -15 -10 -15 -34 0 -21 6 -36 15 -40 26 -9 16 -27 -12 -24 -26 3 -28
7 -31 51 -2 26 -7 47 -13 47 -5 0 -9 7 -9 15 0 8 5 15 10 15 6 0 10 7 10 15 0
8 7 15 15 15 8 0 15 -7 15 -15z m-2235 -32 c15 -15 19 -32 15 -68 -3 -33 -21
-47 -57 -43 -30 4 -33 2 -33 -24 0 -18 -5 -28 -15 -28 -12 0 -15 16 -15 88 l0
89 45 1 c28 0 51 -6 60 -15z m115 2 c0 -7 -9 -15 -20 -18 -16 -4 -20 -14 -20
-51 0 -34 -4 -46 -15 -46 -12 0 -15 14 -15 64 l0 64 35 0 c22 0 35 -5 35 -13z
m50 -50 c0 -51 -3 -65 -15 -65 -12 0 -15 14 -15 65 0 51 3 65 15 65 12 0 15
-14 15 -65z m60 54 c0 -8 5 -8 15 1 21 17 61 4 69 -22 3 -13 6 -40 6 -60 0
-31 -4 -38 -20 -38 -17 0 -20 7 -20 45 0 33 -5 47 -16 52 -21 8 -34 -14 -34
-59 0 -27 -4 -38 -15 -38 -12 0 -15 14 -15 65 0 51 3 65 15 65 8 0 15 -5 15
-11z m432 -36 c3 -41 6 -48 26 -51 20 -3 22 0 22 47 0 44 3 51 20 51 18 0 20
-7 20 -64 l0 -64 -47 0 c-27 0 -54 4 -60 10 -19 15 -17 118 1 118 11 0 16 -14
18 -47z m188 32 c0 -7 -9 -15 -20 -18 -16 -4 -20 -14 -20 -51 0 -39 -3 -46
-20 -46 -18 0 -20 7 -20 64 l0 65 40 -1 c25 0 40 -5 40 -13z m120 0 c6 -7 13
-36 17 -64 5 -47 4 -51 -15 -51 -18 0 -21 7 -24 48 -3 39 -6 47 -23 47 -17 0
-20 -8 -23 -47 -2 -34 -7 -48 -18 -48 -11 0 -14 15 -14 63 l0 64 45 1 c25 0
49 -5 55 -13z m285 -5 c21 -24 24 -72 5 -94 -16 -21 -74 -20 -94 0 -21 20 -20
73 1 96 21 24 65 23 88 -2z m71 -15 c3 -19 10 -35 14 -35 4 0 11 16 14 35 10
52 40 48 53 -7 l9 -43 13 43 c9 31 17 42 32 42 11 0 18 -3 16 -7 -3 -5 -12
-34 -21 -65 -13 -44 -21 -58 -35 -58 -13 0 -22 10 -26 30 -4 17 -10 30 -15 30
-5 0 -11 -13 -15 -30 -4 -20 -13 -30 -25 -30 -17 0 -21 8 -55 118 -3 7 4 12
15 12 14 0 21 -9 26 -35z m274 15 c5 -10 10 -39 10 -64 0 -39 -3 -46 -20 -46
-17 0 -20 7 -20 51 0 43 -3 50 -17 47 -14 -2 -19 -15 -21 -51 -3 -39 -6 -47
-23 -47 -17 0 -19 7 -19 63 l0 64 50 1 c39 1 52 -3 60 -18z m181 10 c21 -12
26 -40 6 -40 -7 0 -18 5 -24 11 -20 20 -45 2 -41 -28 2 -20 9 -29 26 -31 12
-2 22 1 22 7 0 6 7 11 15 11 8 0 15 -6 15 -13 0 -43 -80 -52 -106 -12 -40 61
22 129 87 95z m283 -6 c10 -10 16 -33 16 -64 l0 -49 -51 2 c-66 3 -87 27 -50
58 13 10 32 19 42 19 10 0 19 5 19 11 0 7 -12 9 -35 5 -36 -7 -44 1 -23 22 17
17 64 15 82 -4z m116 1 c0 -7 -9 -15 -20 -18 -16 -4 -20 -14 -20 -51 0 -39 -3
-46 -20 -46 -18 0 -20 7 -20 64 l0 65 40 -1 c25 0 40 -5 40 -13z m11770 -45
c22 0 30 5 33 23 2 12 4 -3 4 -33 0 -30 -2 -43 -4 -27 -4 22 -9 27 -33 27 -24
0 -29 -5 -33 -27 -2 -16 -4 -3 -4 27 0 30 2 45 4 33 3 -18 11 -23 33 -23z
m862 -12 c-3 -61 -12 -60 -12 2 0 29 3 50 7 47 3 -4 6 -26 5 -49z m-1022 -20
l-24 -23 18 23 c19 21 19 23 0 45 l-18 22 24 -22 24 -23 -24 -22z m467 40 c-3
-8 -6 -5 -6 6 -1 11 2 17 5 13 3 -3 4 -12 1 -19z m432 -20 c-1 -39 -2 -40 -8
-13 -8 38 -35 40 -39 3 -2 -17 2 -28 13 -31 12 -4 11 -5 -2 -3 -22 2 -29 41
-12 62 7 8 18 13 26 10 7 -3 13 -1 13 4 0 6 2 10 5 10 3 0 4 -19 4 -42z m83
-10 c2 -21 0 -38 -4 -38 -4 0 -8 21 -7 48 1 52 6 48 11 -10z m630 0 c2 -20 0
-34 -4 -32 -4 3 -8 24 -7 47 1 47 6 41 11 -15z m-960 30 c-6 -7 -12 -26 -15
-43 -4 -28 -4 -27 -6 7 -1 31 6 43 28 47 2 1 -1 -5 -7 -11z m151 5 c3 -5 -6
-9 -20 -10 -19 -1 -22 1 -12 8 17 11 26 11 32 2z m266 -47 l-2 -31 -4 30 c-3
17 -10 37 -16 45 -10 13 -10 13 6 1 10 -8 16 -25 16 -45z m269 42 c7 -7 12
-16 12 -22 0 -5 -6 -2 -13 9 -18 23 -37 12 -37 -22 0 -22 4 -25 26 -20 16 3
22 1 16 -5 -30 -30 -69 25 -42 58 15 17 22 18 38 2z m142 -3 c-7 -9 -15 -13
-19 -10 -3 3 1 10 9 15 21 14 24 12 10 -5z m-1249 -22 c-12 -20 -14 -14 -5 12
4 9 9 14 11 11 3 -2 0 -13 -6 -23z m57 -8 c-4 -25 -34 -43 -48 -29 -8 8 -4 10
12 10 19 -1 23 4 23 26 -1 16 3 24 8 19 5 -5 7 -17 5 -26z m72 25 c0 -5 -4
-10 -10 -10 -5 0 -10 5 -10 10 0 6 5 10 10 10 6 0 10 -4 10 -10z m153 -10 c-3
-12 -8 -19 -11 -16 -5 6 5 36 12 36 2 0 2 -9 -1 -20z m55 -15 c-4 -25 -34 -43
-48 -29 -8 8 -4 10 12 10 19 -1 23 4 23 26 -1 16 3 24 8 19 5 -5 7 -17 5 -26z
m119 15 c-1 -11 -5 -20 -9 -20 -10 0 -10 4 -2 24 8 22 13 20 11 -4z m51 -5
c-3 -3 -9 2 -12 12 -6 14 -5 15 5 6 7 -7 10 -15 7 -18z m359 -27 c-2 -13 -4
-5 -4 17 -1 22 1 32 4 23 2 -10 2 -28 0 -40z m40 30 c-3 -8 -6 -5 -6 6 -1 11
2 17 5 13 3 -3 4 -12 1 -19z m115 -13 c-2 -19 -6 -35 -8 -35 -2 0 -4 16 -4 35
0 19 4 35 8 35 4 0 6 -16 4 -35z m133 8 c0 -23 4 -28 22 -27 12 0 19 -4 16 -9
-3 -5 -14 -7 -24 -4 -12 3 -19 -2 -22 -17 -2 -11 -5 3 -6 32 0 28 3 52 7 52 4
0 8 -12 7 -27z m133 -8 c-4 -25 -34 -43 -48 -29 -8 8 -4 10 12 10 19 -1 23 4
23 26 -1 16 3 24 8 19 5 -5 7 -17 5 -26z m34 0 c-2 -19 -6 -35 -8 -35 -2 0 -4
16 -4 35 0 19 4 35 8 35 4 0 6 -16 4 -35z m-1167 -16 c-6 -17 -9 -19 -16 -8
-5 8 -9 19 -9 24 0 6 5 3 10 -5 8 -13 10 -12 10 4 0 11 3 17 6 13 3 -3 3 -15
-1 -28z m99 -12 c7 -6 6 -7 -4 -4 -8 2 -16 14 -17 28 -1 19 -1 20 4 4 3 -11
10 -24 17 -28z m289 16 c-5 -13 -2 -15 17 -10 16 4 20 3 12 -5 -14 -14 -42 -3
-42 17 0 8 4 15 10 15 5 0 7 -7 3 -17z m402 -4 c0 -8 -11 -15 -25 -16 -22 -1
-22 -1 -2 4 23 5 29 18 12 26 -6 3 -5 4 2 3 7 -2 13 -9 13 -17z m-843 -11 c-7
-7 -12 -8 -12 -2 0 14 12 26 19 19 2 -3 -1 -11 -7 -17z m384 -6 c-10 -2 -22 0
-28 6 -6 6 0 7 19 4 21 -5 23 -7 9 -10z m-14722 -628 c9 -3 16 -11 16 -16 0
-6 -7 -5 -15 2 -12 10 -19 10 -27 2 -8 -8 -4 -14 16 -22 18 -6 26 -16 24 -27
-4 -22 -36 -29 -52 -13 -8 9 -6 11 11 6 31 -10 39 12 9 24 -27 10 -35 35 -13
43 6 3 13 6 14 6 1 1 8 -2 17 -5z m2549 -4 c-13 -5 -23 -14 -23 -20 0 -5 10
-11 23 -11 l22 -2 -22 -4 c-13 -2 -23 -9 -23 -14 0 -5 10 -14 23 -19 21 -8 21
-9 -5 -9 -27 -1 -28 1 -28 44 0 43 1 45 28 44 26 0 26 -1 5 -9z m639 3 c-10
-4 -10 -8 -1 -19 8 -10 8 -14 0 -14 -6 0 -12 -12 -12 -27 l-1 -28 -7 30 c-8
33 3 65 22 64 9 0 8 -2 -1 -6z m135 -60 c-2 -16 -4 -5 -4 22 0 28 2 40 4 28 2
-13 2 -35 0 -50z m76 22 c0 -19 -3 -38 -6 -42 -4 -3 -7 6 -7 20 0 17 -5 27
-15 27 -17 0 -21 -36 -5 -43 6 -3 5 -4 -2 -3 -7 1 -14 15 -16 29 -3 22 1 27
17 27 13 0 21 6 21 17 0 9 3 13 7 10 3 -4 6 -23 6 -42z m-3112 7 c-14 -5 -14
-39 -1 -45 6 -3 5 -4 -2 -3 -14 3 -27 44 -20 64 3 10 7 10 19 0 10 -8 11 -14
4 -16z m2392 14 c3 -8 1 -17 -6 -19 -9 -3 -9 -10 1 -27 11 -18 11 -21 0 -18
-15 5 -24 78 -10 78 6 0 12 -6 15 -14z m251 -30 c1 -20 -2 -36 -5 -36 -8 0
-18 62 -12 73 9 14 15 0 17 -37z m-2839 14 c12 -19 -6 -52 -25 -47 -12 3 -21
-1 -23 -12 -3 -9 -5 3 -6 27 -1 38 1 42 23 42 14 0 28 -5 31 -10z m48 3 c-7
-2 -13 -16 -13 -29 0 -14 -4 -22 -10 -19 -5 3 -10 17 -10 31 0 18 5 24 23 23
12 0 16 -3 10 -6z m37 -23 c0 -16 -4 -30 -10 -30 -5 0 -10 14 -10 30 0 17 5
30 10 30 6 0 10 -13 10 -30z m69 -2 c-2 -31 -2 -31 -6 -5 -2 15 -10 27 -18 27
-8 0 -16 -12 -18 -27 -4 -26 -4 -26 -6 5 -1 28 2 32 24 32 22 0 25 -4 24 -32z
m2391 -15 c0 -15 -36 -18 -44 -4 -4 5 3 7 14 4 11 -3 20 -1 20 5 0 5 -9 12
-21 15 -12 3 -18 10 -15 16 8 12 46 -18 46 -36z m80 16 c0 -17 -4 -28 -10 -24
-5 3 -10 17 -10 31 0 13 5 24 10 24 6 0 10 -14 10 -31z m103 19 c2 -7 1 -22
-4 -33 -6 -17 -8 -16 -8 8 -1 34 -22 32 -32 -4 -7 -24 -7 -24 -8 4 -1 15 -5
27 -10 27 -5 0 -12 -12 -14 -27 -4 -26 -4 -26 -6 5 -1 31 0 32 38 32 22 0 41
-5 44 -12z m66 -20 c-1 -18 -3 -25 -6 -15 -5 18 -18 23 -27 8 -4 -5 -1 -12 4
-14 6 -3 5 -4 -2 -3 -22 4 -20 27 3 33 22 6 22 7 3 14 -18 7 -17 8 4 8 19 1
22 -4 21 -31z m78 -15 c-3 -10 -5 -2 -5 17 0 19 2 27 5 18 2 -10 2 -26 0 -35z
m71 20 c-2 -20 -9 -28 -23 -28 -14 0 -21 8 -23 28 -3 23 0 27 23 27 23 0 26
-4 23 -27z m75 8 c2 -10 1 -25 -4 -32 -6 -10 -9 -6 -9 14 0 17 -5 27 -14 27
-8 0 -17 -12 -19 -27 -4 -26 -4 -26 -6 5 -1 27 2 32 23 32 15 0 26 -7 29 -19z
m117 -11 c0 -16 -4 -30 -10 -30 -5 0 -10 14 -10 30 0 17 5 30 10 30 6 0 10
-13 10 -30z m35 20 c-3 -5 1 -10 10 -10 10 0 13 5 9 12 -4 7 -3 8 4 4 19 -11
14 -26 -8 -26 -11 0 -20 -5 -20 -11 0 -6 9 -9 20 -6 11 3 18 1 14 -4 -10 -16
-43 -9 -49 11 -7 22 0 40 16 40 6 0 7 -4 4 -10z m-3145 -302 c0 -9 -3 -9 -12
0 -16 16 -38 15 -38 -2 0 -8 12 -17 26 -20 19 -5 25 -12 22 -29 -2 -17 -10
-22 -32 -22 -17 0 -31 6 -34 15 -5 13 -3 13 11 1 17 -13 47 -9 47 6 0 5 -13
14 -30 20 -33 12 -39 37 -13 52 20 11 53 -3 53 -21z m2560 0 c0 -9 -3 -9 -12
0 -16 16 -38 15 -38 -2 0 -8 12 -17 26 -20 19 -5 25 -12 22 -29 -2 -17 -10
-22 -32 -22 -16 0 -31 6 -34 13 -3 11 -1 11 17 1 15 -10 23 -11 32 -2 8 8 3
15 -20 27 -34 18 -40 40 -14 55 20 11 53 -3 53 -21z m-2462 4 c3 -11 0 -11
-16 -1 -17 10 -23 10 -36 0 -20 -17 -20 -32 -2 -57 13 -17 18 -17 36 -6 19 11
21 11 18 0 -6 -18 -46 -22 -64 -8 -17 15 -18 62 -2 78 16 16 60 11 66 -6z m96
2 c3 -9 2 -23 -3 -32 -6 -10 -6 -23 0 -34 6 -12 6 -18 0 -18 -6 0 -15 9 -21
20 -6 11 -15 20 -20 20 -6 0 -10 -9 -10 -20 0 -11 -4 -20 -10 -20 -5 0 -10 23
-10 50 l0 50 34 0 c22 0 36 -6 40 -16z m38 -26 c2 -35 7 -43 23 -43 16 0 21 8
23 43 4 52 22 56 22 4 0 -43 -14 -62 -47 -62 -26 0 -43 27 -43 69 0 47 18 37
22 -11z m125 5 l16 -38 15 38 c22 56 44 49 41 -13 -3 -58 -19 -68 -20 -12 l-1
37 -12 -34 c-16 -44 -29 -48 -43 -14 l-11 28 -1 -27 c-2 -50 -21 -29 -21 22 0
60 15 65 37 13z m193 20 c0 -13 -3 -14 -12 -5 -17 17 -38 15 -38 -3 0 -8 6
-15 13 -15 7 0 21 -6 31 -13 25 -18 11 -47 -24 -47 -29 0 -48 15 -35 28 3 3
10 0 15 -7 8 -15 40 -8 40 8 0 5 -10 13 -22 17 -47 14 -44 54 3 54 21 0 29 -5
29 -17z m430 -8 c19 -51 -24 -97 -58 -63 -13 13 -16 47 -6 72 10 26 53 20 64
-9z m-125 -33 c0 -23 -4 -41 -10 -39 -11 4 -26 68 -18 80 12 20 28 -3 28 -41z
m1750 0 c0 -24 -4 -41 -10 -39 -11 4 -25 74 -17 82 15 14 27 -6 27 -43z m590
0 c0 -23 -4 -41 -10 -39 -11 4 -26 68 -18 80 12 20 28 -3 28 -41z m-2562 29
c5 0 7 -16 5 -33 -2 -25 -8 -34 -25 -36 -13 -2 -23 -10 -23 -18 0 -8 -4 -14
-10 -14 -5 0 -10 24 -10 54 0 59 -4 57 63 47z m67 -1 c0 -4 -6 -10 -14 -13 -8
-3 -16 -18 -19 -34 -3 -22 -4 -19 -6 12 -1 34 2 41 19 42 11 1 20 -2 20 -7z
m30 -30 c0 -22 -4 -40 -10 -40 -5 0 -10 18 -10 40 0 22 5 40 10 40 6 0 10 -18
10 -40z m78 -2 c2 -22 -1 -38 -7 -38 -6 0 -11 14 -11 30 0 20 -5 30 -15 30
-10 0 -15 -10 -15 -30 0 -16 -4 -30 -10 -30 -10 0 -14 62 -5 72 3 3 18 5 33 4
24 -1 27 -5 30 -38z m1866 36 c22 -8 21 -63 0 -71 -36 -13 -68 33 -44 62 14
17 21 18 44 9z m76 -4 c0 -4 -6 -10 -14 -13 -8 -3 -16 -18 -19 -34 -3 -22 -4
-19 -6 12 -1 34 2 41 19 42 11 1 20 -2 20 -7z m32 -17 l11 -28 10 28 c6 15 15
27 20 27 5 0 7 -6 4 -12 -33 -84 -41 -98 -56 -98 -13 0 -14 2 -2 9 12 8 13 16
3 49 -13 44 -14 52 -7 52 3 0 11 -12 17 -27z m158 12 c18 -22 8 -60 -17 -63
-13 -2 -23 -10 -23 -18 0 -8 -4 -14 -10 -14 -5 0 -10 24 -10 53 0 48 2 53 24
55 13 1 29 -5 36 -13z m92 -10 c8 -19 8 -28 -2 -40 -30 -36 -76 -3 -59 43 11
30 46 29 61 -3z m36 -20 c0 -19 -4 -35 -9 -35 -5 0 -9 18 -9 41 0 22 4 38 9
35 5 -3 9 -22 9 -41z m80 3 c2 -22 -1 -38 -7 -38 -6 0 -11 14 -11 30 0 20 -5
30 -15 30 -10 0 -15 -10 -15 -30 0 -16 -4 -30 -10 -30 -10 0 -14 62 -5 72 3 3
18 5 33 4 24 -1 27 -5 30 -38z m117 33 c3 -5 -5 -12 -17 -14 l-23 -4 23 -8
c14 -5 22 -14 20 -24 -4 -20 -36 -27 -52 -11 -8 9 -6 11 12 5 12 -3 22 -2 22
4 0 5 -9 13 -20 16 -22 7 -27 31 -7 38 20 9 35 8 42 -2z m-1197 -28 c-27 -26
-28 -26 -48 -8 -11 10 -18 21 -15 23 3 3 11 -2 18 -12 12 -16 14 -16 31 3 11
12 24 21 30 21 6 0 -2 -12 -16 -27z m2560 0 c-27 -26 -28 -26 -48 -8 -11 10
-18 21 -15 23 3 3 11 -2 18 -12 12 -16 14 -16 31 3 11 12 24 21 30 21 6 0 -2
-12 -16 -27z m-4706 -588 c16 -35 -12 -75 -52 -75 -29 0 -30 1 -30 50 l0 50
35 0 c28 0 38 -5 47 -25z m133 -35 c0 -31 -4 -40 -15 -38 -18 4 -30 56 -17 82
14 28 31 3 32 -44z m288 23 l22 -38 6 40 c6 39 6 39 8 -12 0 -29 -3 -53 -7
-53 -4 0 -16 14 -26 31 -19 33 -38 25 -29 -12 3 -10 0 -19 -6 -19 -7 0 -11 20
-11 50 0 28 5 50 10 50 6 0 21 -17 33 -37z m437 23 c0 -9 7 -12 19 -9 13 3 23
-2 30 -16 17 -31 -2 -61 -39 -61 -29 0 -30 1 -30 50 0 28 5 50 10 50 6 0 10
-6 10 -14z m278 -38 c-1 -52 -2 -52 -5 -10 -3 33 -8 42 -19 38 -8 -3 -14 -2
-14 3 0 12 12 21 27 21 9 0 13 -15 11 -52z m82 42 c0 -18 -40 -90 -50 -90 -5
0 2 19 15 43 l25 42 -28 6 c-26 6 -26 7 6 8 17 0 32 -4 32 -9z m80 -3 c0 -8
10 -13 23 -13 18 1 22 -5 25 -36 2 -22 -1 -38 -7 -38 -6 0 -11 14 -11 30 0 20
-5 30 -15 30 -10 0 -15 -10 -15 -30 0 -16 -4 -30 -10 -30 -5 0 -10 23 -10 50
0 28 5 50 10 50 6 0 10 -6 10 -13z m208 -10 c2 -11 -6 -29 -18 -42 l-22 -23
28 -5 c25 -3 23 -4 -8 -6 -21 0 -38 2 -38 6 0 4 12 20 27 35 20 21 24 31 15
40 -8 8 -15 8 -27 -2 -8 -7 -15 -8 -15 -3 0 29 53 29 58 0z m92 -2 c19 -51
-24 -97 -58 -63 -13 13 -16 47 -6 72 10 26 53 20 64 -9z m86 10 c3 -8 -4 -28
-15 -44 l-21 -30 22 -4 c14 -3 8 -5 -15 -6 l-39 -1 26 31 c29 34 34 59 11 59
-8 0 -15 -4 -15 -10 0 -5 -4 -10 -10 -10 -5 0 -7 7 -4 15 8 19 53 20 60 0z
m67 8 c-29 -5 -30 -19 -2 -26 16 -4 20 -12 17 -34 -2 -22 -8 -28 -27 -28 -13
0 -27 7 -29 15 -4 13 -3 13 11 2 18 -15 37 -8 37 14 0 8 -10 14 -25 14 -20 0
-25 5 -25 25 0 22 4 25 33 24 23 -1 26 -3 10 -6z m257 -12 c23 -43 -1 -81 -51
-81 -28 0 -29 1 -29 50 l0 50 35 0 c24 0 37 -6 45 -19z m410 11 c0 -4 10 -12
23 -17 16 -7 22 -18 22 -40 0 -27 -4 -30 -32 -33 l-33 -3 0 50 c0 28 5 51 10
51 6 0 10 -3 10 -8z m280 -42 c0 -27 -4 -50 -10 -50 -5 0 -10 18 -10 40 0 22
-5 40 -11 40 -5 0 -7 5 -4 10 3 6 13 10 21 10 10 0 14 -13 14 -50z m277 34 c3
-8 -4 -28 -15 -44 l-22 -29 23 -4 c13 -3 6 -5 -17 -6 l-38 -1 31 36 c31 35 33
54 6 54 -7 0 -16 -6 -18 -12 -3 -8 -6 -6 -6 5 -1 22 47 24 56 1z m93 -9 c19
-51 -24 -97 -58 -63 -13 13 -16 47 -6 72 10 26 53 20 64 -9z m84 10 c3 -8 -6
-28 -20 -44 l-25 -30 28 -4 c23 -3 21 -4 -9 -6 -44 -1 -47 7 -13 39 14 13 25
29 25 37 0 17 -27 17 -33 1 -2 -7 -8 -10 -12 -6 -12 11 5 28 30 28 12 0 25 -7
29 -15z m64 8 c-34 -5 -36 -15 -5 -28 33 -15 30 -59 -4 -63 -17 -2 -29 3 -32
12 -4 9 -2 16 3 16 6 0 10 -5 10 -11 0 -6 8 -9 18 -7 27 5 20 33 -9 36 -22 3
-25 7 -21 28 4 20 10 24 36 23 30 -2 30 -2 4 -6z m-1953 -51 c0 -24 -4 -41
-10 -39 -11 4 -25 74 -17 82 15 14 27 -6 27 -43z m1550 0 c0 -24 -4 -41 -10
-39 -11 4 -25 74 -17 82 15 14 27 -6 27 -43z m-2737 -5 c3 -38 3 -38 -29 -35
-42 4 -47 23 -12 43 22 12 23 14 6 10 -13 -4 -23 -2 -23 3 0 15 13 23 35 20
15 -2 21 -12 23 -41z m130 31 c20 -20 13 -38 -15 -39 l-28 -1 30 -8 c24 -5 27
-8 13 -14 -30 -14 -53 -2 -56 28 -5 40 29 61 56 34z m332 -2 c20 -26 8 -61
-22 -64 -22 -3 -29 2 -34 22 -11 44 29 74 56 42z m50 -35 c1 -9 7 -1 16 18 8
19 17 32 20 29 6 -7 -22 -78 -31 -78 -6 0 -35 64 -35 77 1 15 30 -31 30 -46z
m110 30 c15 -29 13 -31 -21 -31 -19 0 -28 -4 -23 -11 3 -6 15 -9 25 -6 11 3
19 1 19 -5 0 -5 -12 -8 -27 -6 -22 2 -29 9 -31 32 -5 44 38 64 58 27z m122 5
c11 -16 10 -66 -2 -66 -5 0 -10 14 -10 30 0 43 -29 41 -32 -2 l-1 -33 -4 33
c-6 42 -33 44 -33 2 0 -16 -4 -30 -10 -30 -5 0 -10 17 -10 38 l0 39 48 0 c26
0 50 -5 54 -11z m168 -1 c16 -19 4 -35 -26 -35 -16 0 -23 -4 -18 -11 3 -6 15
-9 25 -6 11 3 19 1 19 -5 0 -5 -12 -8 -27 -6 -22 2 -29 9 -31 32 -5 41 32 62
58 31z m57 0 c-9 -7 -17 -24 -17 -39 0 -14 -4 -26 -10 -26 -5 0 -10 17 -10 39
0 35 2 39 27 39 24 0 25 -2 10 -13z m1041 3 c20 -20 14 -38 -13 -38 -14 0 -25
-5 -25 -11 0 -7 10 -9 26 -5 17 5 23 3 19 -4 -15 -25 -65 -3 -65 30 0 18 19
40 35 40 6 0 16 -5 23 -12z m76 6 c25 -10 19 -22 -9 -16 -22 4 -25 1 -25 -23
0 -24 3 -26 26 -21 17 5 23 3 19 -4 -15 -25 -65 -3 -65 30 0 16 18 40 31 40 4
0 14 -3 23 -6z m84 -6 c20 -20 14 -38 -13 -38 -14 0 -25 -5 -25 -11 0 -7 10
-9 26 -5 17 5 23 3 19 -4 -3 -5 -17 -10 -30 -10 -18 0 -26 7 -31 25 -10 42 26
71 54 43z m128 -33 c1 -32 1 -34 -3 -7 -6 42 -33 44 -33 2 0 -16 -4 -30 -10
-30 -5 0 -10 14 -10 30 0 42 -27 40 -33 -2 -3 -30 -4 -29 -5 8 l-2 41 48 -1
47 -1 1 -40z m162 33 c20 -20 14 -38 -13 -38 -14 0 -25 -5 -25 -11 0 -7 10 -9
26 -5 17 5 23 3 19 -4 -15 -25 -65 -3 -65 30 0 18 19 40 35 40 6 0 16 -5 23
-12z m60 -2 c-9 -6 -18 -25 -21 -41 -3 -25 -4 -23 -6 10 -1 36 2 41 22 42 20
2 20 1 5 -11z m167 4 c3 -6 -4 -10 -17 -10 -22 -1 -22 -2 5 -16 16 -8 26 -21
24 -27 -4 -15 -57 -22 -57 -9 0 6 9 8 20 5 11 -3 20 0 20 6 0 6 -6 11 -14 11
-19 0 -29 17 -22 35 6 17 32 20 41 5z m-892 -17 c-7 -2 -21 -2 -30 0 -10 3 -4
5 12 5 17 0 24 -2 18 -5z m-1560 -10 c-7 -2 -21 -2 -30 0 -10 3 -4 5 12 5 17
0 24 -2 18 -5z m1077 -37 c0 -23 -16 -27 -17 -5 -1 10 2 19 8 19 5 0 9 -6 9
-14z m1470 0 c0 -23 -16 -27 -17 -5 -1 10 2 19 8 19 5 0 9 -6 9 -14z m-1771
-364 c7 -13 7 -22 0 -29 -8 -8 -7 -17 0 -32 15 -27 -4 -28 -21 -1 -7 11 -16
20 -20 20 -5 0 -8 -9 -8 -20 0 -11 -4 -20 -10 -20 -5 0 -10 23 -10 50 0 49 1
50 30 50 18 0 33 -7 39 -18z m941 -9 c0 -25 1 -25 18 -10 25 23 39 22 19 -1
-15 -16 -15 -20 -1 -40 18 -26 8 -29 -18 -5 -17 15 -18 15 -18 0 0 -10 -4 -17
-10 -17 -5 0 -10 23 -10 50 0 28 5 50 10 50 6 0 10 -12 10 -27z m2425 16 c11
-17 -3 -23 -20 -9 -18 15 -45 -2 -45 -30 0 -28 27 -45 46 -29 14 12 14 14 -3
20 -16 7 -15 8 5 8 17 1 22 -5 22 -22 0 -19 -6 -23 -35 -25 -29 -2 -37 2 -47
23 -17 38 3 75 41 75 16 0 33 -5 36 -11z m215 -40 l0 -50 -32 3 c-29 3 -33 6
-33 33 0 22 6 33 23 40 12 5 22 13 22 17 0 5 5 8 10 8 6 0 10 -23 10 -51z
m120 1 c0 -27 -4 -50 -10 -50 -5 0 -10 23 -10 50 0 28 5 50 10 50 6 0 10 -22
10 -50z m-3622 18 c20 -20 14 -38 -13 -38 -14 0 -25 -5 -25 -10 0 -6 11 -8 28
-4 21 5 24 4 16 -6 -7 -6 -22 -10 -35 -8 -18 2 -25 10 -27 32 -5 40 29 61 56
34z m120 -1 c14 -10 16 -67 2 -67 -5 0 -10 14 -10 30 0 20 -5 30 -15 30 -10 0
-15 -10 -15 -30 0 -16 -4 -30 -10 -30 -5 0 -10 14 -10 30 0 17 -4 30 -10 30
-5 0 -10 -13 -10 -30 0 -16 -4 -30 -10 -30 -5 0 -10 18 -10 40 l0 40 43 -3
c23 -1 48 -6 55 -10z m80 1 c7 -7 12 -25 12 -41 0 -26 -3 -28 -32 -25 -42 4
-48 30 -11 46 22 9 23 11 6 8 -22 -4 -30 4 -16 17 10 11 28 8 41 -5z m42 -28
c0 -22 -4 -40 -10 -40 -11 0 -14 63 -3 73 11 12 13 8 13 -33z m76 30 c13 -12
17 -70 3 -70 -5 0 -9 14 -9 30 0 20 -5 30 -15 30 -10 0 -15 -10 -15 -30 0 -16
-4 -30 -10 -30 -5 0 -10 17 -10 38 0 32 3 38 22 39 12 1 27 -2 34 -7z m44 -30
c0 -22 -4 -40 -10 -40 -11 0 -14 63 -3 73 11 12 13 8 13 -33z m77 28 c12 -21
14 -56 3 -63 -6 -4 -10 6 -10 24 0 21 -5 31 -15 31 -10 0 -15 -10 -15 -30 0
-16 -4 -30 -10 -30 -5 0 -10 18 -10 40 0 36 3 40 24 40 14 0 28 -6 33 -12z
m91 -43 c-3 -46 -5 -50 -30 -53 -16 -2 -28 2 -28 8 0 7 8 9 19 5 11 -3 22 -1
26 5 3 5 -2 10 -12 10 -37 0 -56 43 -31 68 6 6 22 11 35 10 22 -2 24 -6 21
-53z m80 28 c9 -25 11 -25 11 -6 1 30 21 40 28 14 7 -27 23 -27 23 -1 0 11 5
20 10 20 13 0 13 -10 -1 -49 -13 -37 -25 -40 -35 -9 l-7 23 -8 -23 c-12 -33
-25 -27 -37 18 -11 45 1 55 16 13z m150 18 c8 -5 12 -21 10 -37 -3 -25 -7 -29
-33 -29 -24 0 -31 5 -33 23 -6 39 25 63 56 43z m72 -2 c0 -5 -7 -9 -15 -9 -10
0 -15 -10 -15 -30 0 -16 -4 -30 -10 -30 -10 0 -15 62 -5 71 8 9 45 8 45 -2z
m2502 -21 c2 -18 8 -33 13 -33 6 0 11 15 13 33 5 46 22 40 22 -9 0 -39 -1 -40
-32 -37 -30 3 -33 6 -36 41 -2 20 1 37 7 37 5 0 11 -15 13 -32z m88 -14 c0
-19 -4 -34 -10 -34 -5 0 -10 18 -10 41 0 24 4 38 10 34 6 -3 10 -22 10 -41z
m160 27 c15 -29 13 -31 -21 -31 -18 0 -28 -4 -24 -10 4 -6 15 -8 26 -5 11 4
19 2 19 -4 0 -19 -49 -12 -60 8 -13 25 -13 27 6 45 21 21 41 20 54 -3z m70
-21 c0 -22 -4 -40 -10 -40 -11 0 -14 63 -3 73 11 12 13 8 13 -33z m79 22 c11
-21 11 -62 -1 -62 -4 0 -8 14 -8 30 0 20 -5 30 -15 30 -10 0 -15 -10 -15 -30
0 -16 -4 -30 -10 -30 -5 0 -10 18 -10 40 0 36 3 40 25 40 13 0 29 -8 34 -18z
m75 12 c9 -3 16 -15 16 -25 0 -14 -7 -19 -26 -19 -15 0 -23 -4 -19 -10 4 -6
16 -8 27 -4 14 4 18 2 14 -5 -4 -6 -18 -11 -31 -11 -29 0 -45 41 -25 65 14 17
21 18 44 9z m-967 -79 c0 -8 -4 -15 -9 -15 -4 0 -8 7 -8 15 0 8 4 15 8 15 5 0
9 -7 9 -15z m283 0 c0 -14 -18 -16 -132 -14 -73 0 -136 3 -141 6 -24 14 18 21
138 22 117 2 135 0 135 -14z m-3219 -160 c1 -5 5 8 9 30 l7 40 1 -50 1 -50
-28 35 -29 35 -5 -35 c-3 -28 -4 -25 -5 15 l-1 50 24 -30 c14 -16 26 -34 26
-40z m248 40 c8 0 16 -7 18 -15 4 -12 3 -13 -5 -1 -12 17 -32 6 -32 -20 0 -22
19 -25 40 -6 12 10 12 9 1 -5 -7 -10 -22 -18 -32 -18 -16 0 -19 7 -18 48 0 26
3 40 7 32 4 -8 13 -15 21 -15z m284 3 c-3 -13 -6 -33 -7 -45 0 -13 -4 -23 -8
-23 -10 0 -11 74 -1 83 13 14 22 6 16 -15z m764 -45 c-2 -16 -4 -5 -4 22 0 28
2 40 4 28 2 -13 2 -35 0 -50z m118 50 c-2 -10 -4 -18 -5 -18 -1 0 -4 -11 -6
-24 -2 -14 -7 -27 -9 -30 -7 -7 -6 55 1 73 8 22 23 20 19 -1z m562 -50 c-2
-16 -4 -5 -4 22 0 28 2 40 4 28 2 -13 2 -35 0 -50z m296 36 c23 3 27 -2 26
-31 l-1 -33 -7 30 c-8 38 -24 38 -32 -1 -5 -23 -7 -18 -7 21 0 30 2 43 7 32 4
-10 10 -18 14 -18z m1062 -14 c0 -39 -3 -45 -20 -44 -11 0 -14 3 -7 6 6 2 12
20 12 38 0 18 -6 36 -12 38 -7 3 -4 6 7 6 17 1 20 -5 20 -44z m79 3 c-1 -18
-2 -37 -3 -41 -1 -5 -11 -7 -23 -5 -17 2 -24 11 -26 31 -3 25 5 32 31 28 4 0
7 6 7 15 0 8 4 13 8 10 4 -2 7 -20 6 -38z m163 -25 c-2 -16 -4 -5 -4 22 0 28
2 40 4 28 2 -13 2 -35 0 -50z m-2906 34 c-13 -13 -26 -3 -16 12 3 6 11 8 17 5
6 -4 6 -10 -1 -17z m503 -22 c1 -19 -2 -35 -5 -35 -8 0 -17 69 -10 75 9 9 14
-5 15 -40z m268 9 c-3 -16 1 -30 9 -36 12 -8 11 -9 -1 -5 -9 2 -16 18 -18 41
-2 22 1 36 6 32 5 -3 7 -17 4 -32z m642 -9 c1 -19 -2 -35 -5 -35 -8 0 -17 69
-10 75 9 9 14 -5 15 -40z m140 1 c1 -39 -11 -35 -14 4 -3 34 -1 44 6 37 4 -4
7 -22 8 -41z m520 -1 c1 -19 -2 -35 -5 -35 -8 0 -17 69 -10 75 9 9 14 -5 15
-40z m-2679 -25 c8 0 16 12 18 28 4 25 4 24 6 -6 1 -29 -2 -33 -21 -30 -18 2
-24 10 -25 36 -3 32 -3 32 3 2 3 -16 11 -30 19 -30z m132 20 c1 -33 1 -34 -5
-6 -9 39 -25 39 -33 1 l-5 -30 -5 35 c-4 33 -2 36 21 35 22 0 25 -5 27 -35z
m143 14 c0 -8 -9 -14 -20 -14 -11 0 -20 -5 -20 -11 0 -6 9 -9 20 -6 11 3 20 1
20 -5 0 -5 -10 -8 -22 -6 -26 3 -38 46 -17 58 16 11 39 1 39 -16z m41 12 c-5
-6 -11 -22 -14 -36 -3 -19 -5 -17 -6 11 -1 25 3 36 14 36 9 0 11 -4 6 -11z
m114 -14 c7 -20 -19 -47 -39 -39 -19 7 -21 53 -3 60 18 6 35 -2 42 -21z m130
18 c3 -6 -1 -7 -9 -4 -9 3 -16 1 -16 -4 0 -6 9 -14 21 -17 11 -4 18 -12 16
-18 -4 -15 -47 -22 -47 -9 0 6 10 8 22 4 14 -3 19 -2 14 6 -4 7 -14 12 -22 12
-8 0 -14 6 -14 13 0 25 23 36 35 17z m87 -2 c-7 -7 -12 -21 -12 -31 0 -15 5
-18 21 -14 16 4 19 3 11 -5 -6 -6 -18 -8 -26 -5 -19 8 -21 53 -3 60 20 9 22 8
9 -5z m253 -37 c-3 -11 -14 -21 -23 -21 -13 0 -13 2 4 14 17 13 17 17 5 38
-12 22 -12 22 4 7 11 -11 15 -24 10 -38z m68 27 c14 -21 2 -48 -22 -48 -24 0
-37 36 -20 56 14 17 28 14 42 -8z m106 -27 l-2 -26 -4 25 c-3 14 -10 32 -16
40 -11 13 -10 13 6 1 9 -7 16 -25 16 -40z m96 39 c3 -5 0 -7 -8 -4 -8 3 -18 1
-21 -4 -3 -5 3 -12 14 -15 28 -7 26 -37 -2 -36 -17 1 -19 2 -5 6 24 6 21 20
-5 26 -18 5 -19 8 -8 21 14 18 26 20 35 6z m135 -16 c0 -8 -9 -14 -20 -14 -11
0 -20 -5 -20 -11 0 -6 9 -9 20 -6 11 3 20 1 20 -5 0 -5 -10 -8 -22 -6 -26 3
-38 46 -17 58 16 11 39 1 39 -16z m150 10 c0 -8 -4 -12 -10 -9 -5 3 -10 10
-10 16 0 5 5 9 10 9 6 0 10 -7 10 -16z m70 1 c19 -23 8 -50 -20 -50 -16 0 -26
6 -28 18 -4 18 14 47 28 47 4 0 13 -7 20 -15z m110 -2 c0 -2 -8 -3 -17 -1 -12
2 -19 -5 -21 -21 -3 -20 0 -23 19 -18 16 4 19 3 11 -5 -6 -6 -18 -8 -26 -5
-19 8 -21 53 -3 60 12 4 37 -2 37 -10z m63 -5 c14 -21 2 -48 -22 -48 -24 0
-37 36 -20 56 14 17 28 14 42 -8z m76 -22 l-1 -31 -7 29 c-3 17 -10 30 -16 30
-5 0 -13 -13 -16 -30 l-7 -29 -1 32 c0 17 5 33 12 36 24 8 37 -5 36 -37z m29
19 c-3 -3 -9 2 -12 12 -6 14 -5 15 5 6 7 -7 10 -15 7 -18z m80 -19 c-2 -13
-10 -21 -23 -21 -11 0 -23 -7 -26 -15 -4 -8 -7 4 -7 28 0 23 3 42 7 42 4 0 7
-10 7 -22 -1 -14 6 -24 17 -26 20 -4 24 27 5 48 -11 12 -10 12 5 0 10 -7 17
-23 15 -34z m90 32 c18 -18 14 -26 -15 -30 l-28 -4 25 -11 c24 -11 24 -12 3
-12 -26 -1 -40 33 -23 54 15 18 22 19 38 3z m110 0 c19 -19 14 -28 -13 -28
-28 0 -34 -16 -7 -23 13 -3 12 -4 -3 -3 -23 1 -32 31 -15 51 15 18 22 19 38 3z
m342 -5 c0 -3 -7 -3 -15 0 -8 4 -17 2 -20 -2 -2 -5 4 -11 15 -14 11 -3 20 -10
20 -16 0 -17 -30 -25 -42 -13 -8 8 -5 9 11 5 12 -3 21 -1 21 6 0 6 -6 11 -14
11 -21 0 -31 21 -16 30 13 8 40 3 40 -7z m70 -5 c10 -22 10 -22 -4 -4 -17 21
-36 13 -36 -16 0 -15 5 -19 20 -15 11 3 18 1 14 -4 -3 -5 -11 -9 -19 -9 -7 0
-16 -6 -18 -12 -3 -7 -6 6 -6 29 -1 37 6 49 31 52 4 1 12 -9 18 -21z m41 8
c-5 -6 -11 -22 -14 -36 -3 -19 -5 -17 -6 11 -1 25 3 36 14 36 9 0 11 -4 6 -11z
m108 -35 l-2 -26 -4 25 c-3 14 -10 32 -16 40 -11 13 -10 13 6 1 9 -7 16 -25
16 -40z m769 37 c19 -19 14 -28 -13 -28 -28 0 -34 -16 -7 -23 13 -3 12 -4 -3
-3 -23 1 -32 31 -15 51 15 18 22 19 38 3z m47 2 c-3 -5 -12 -10 -18 -10 -7 0
-6 4 3 10 19 12 23 12 15 0z m163 -29 c-4 -32 -49 -45 -47 -14 0 10 3 13 6 6
7 -20 33 -15 33 5 0 26 -11 34 -27 21 -8 -8 -13 -8 -13 -1 0 6 6 12 13 15 23
8 38 -5 35 -32z m114 27 c-5 -7 -12 -24 -15 -38 -4 -22 -4 -21 -6 7 -1 26 6
38 28 42 2 1 -1 -5 -7 -11z m77 -37 l-2 -26 -4 25 c-3 14 -10 32 -16 40 -11
13 -10 13 6 1 9 -7 16 -25 16 -40z m73 37 c-5 -7 -12 -24 -15 -38 -4 -22 -4
-21 -6 7 -1 26 6 38 28 42 2 1 -1 -5 -7 -11z m66 -27 c3 -29 1 -32 -19 -29
-30 4 -37 28 -10 35 12 3 21 10 21 15 0 6 -7 7 -16 4 -9 -3 -12 -2 -9 5 12 19
30 3 33 -30z m42 29 c0 -5 -4 -10 -10 -10 -5 0 -10 5 -10 10 0 6 5 10 10 10 6
0 10 -4 10 -10z m70 -16 c0 -8 -9 -14 -20 -14 -11 0 -20 -5 -20 -11 0 -6 9 -9
20 -6 11 3 20 1 20 -5 0 -5 -10 -8 -22 -6 -26 3 -38 46 -17 58 16 11 39 1 39
-16z m-4008 -14 c-2 -16 -6 -30 -8 -30 -2 0 -4 14 -4 30 0 17 4 30 8 30 5 0 7
-13 4 -30z m622 14 c3 -8 2 -12 -4 -9 -6 3 -10 10 -10 16 0 14 7 11 14 -7z
m101 -5 c4 12 9 20 11 18 5 -5 -22 -77 -28 -77 -2 0 -4 8 -4 18 0 9 -4 28 -8
42 l-7 25 14 -24 15 -24 7 22z m77 -19 c-2 -22 -6 -40 -8 -40 -2 0 -4 18 -4
40 0 22 3 40 8 40 4 0 6 -18 4 -40z m175 8 c-3 -7 -5 -2 -5 12 0 14 2 19 5 13
2 -7 2 -19 0 -25z m1230 -15 c-3 -10 -5 -2 -5 17 0 19 2 27 5 18 2 -10 2 -26
0 -35z m63 11 c0 -1 -9 0 -20 3 -11 3 -20 12 -20 19 0 11 5 10 20 -3 11 -10
20 -18 20 -19z m247 -11 c-3 -10 -5 -2 -5 17 0 19 2 27 5 18 2 -10 2 -26 0
-35z m913 16 c0 -26 -3 -30 -22 -27 -29 4 -35 28 -9 35 12 3 21 9 21 14 0 5 2
9 5 9 3 0 5 -14 5 -31z m184 -22 c7 -6 6 -7 -4 -4 -8 2 -16 16 -17 33 -1 25 0
26 4 4 3 -14 10 -29 17 -33z m23 6 c-3 -10 -5 -2 -5 17 0 19 2 27 5 18 2 -10
2 -26 0 -35z m-2990 -5 c-3 -7 -5 -2 -5 12 0 14 2 19 5 13 2 -7 2 -19 0 -25z
m-92 2 c3 -5 1 -10 -4 -10 -6 0 -11 5 -11 10 0 6 2 10 4 10 3 0 8 -4 11 -10z
m1715 -6 c0 -2 -9 -4 -20 -4 -11 0 -20 4 -20 9 0 5 9 7 20 4 11 -3 20 -7 20
-9z m3563 -281 c-7 -2 -21 -2 -30 0 -10 3 -4 5 12 5 17 0 24 -2 18 -5z m54
-29 c-3 -3 -12 -4 -19 -1 -8 3 -5 6 6 6 11 1 17 -2 13 -5z m86 -1 c-7 -2 -19
-2 -25 0 -7 3 -2 5 12 5 14 0 19 -2 13 -5z m-92 -51 c-7 -2 -18 1 -23 6 -8 8
-4 9 13 5 13 -4 18 -8 10 -11z m146 2 c-3 -3 -12 -4 -19 -1 -8 3 -5 6 6 6 11
1 17 -2 13 -5z m-70 -116 c-3 -7 -5 -2 -5 12 0 14 2 19 5 13 2 -7 2 -19 0 -25z
m0 -60 c-3 -7 -5 -2 -5 12 0 14 2 19 5 13 2 -7 2 -19 0 -25z m0 -60 c-3 -7 -5
-2 -5 12 0 14 2 19 5 13 2 -7 2 -19 0 -25z m0 -60 c-3 -7 -5 -2 -5 12 0 14 2
19 5 13 2 -7 2 -19 0 -25z m0 -60 c-3 -7 -5 -2 -5 12 0 14 2 19 5 13 2 -7 2
-19 0 -25z m0 -60 c-3 -7 -5 -2 -5 12 0 14 2 19 5 13 2 -7 2 -19 0 -25z m0
-60 c-3 -7 -5 -2 -5 12 0 14 2 19 5 13 2 -7 2 -19 0 -25z m0 -60 c-3 -7 -5 -2
-5 12 0 14 2 19 5 13 2 -7 2 -19 0 -25z m0 -60 c-3 -7 -5 -2 -5 12 0 14 2 19
5 13 2 -7 2 -19 0 -25z m0 -60 c-3 -7 -5 -2 -5 12 0 14 2 19 5 13 2 -7 2 -19
0 -25z m0 -60 c-3 -7 -5 -2 -5 12 0 14 2 19 5 13 2 -7 2 -19 0 -25z m0 -60
c-3 -7 -5 -2 -5 12 0 14 2 19 5 13 2 -7 2 -19 0 -25z m0 -60 c-3 -7 -5 -2 -5
12 0 14 2 19 5 13 2 -7 2 -19 0 -25z m-6524 -5 c-7 -2 -21 -2 -30 0 -10 3 -4
5 12 5 17 0 24 -2 18 -5z m6524 -55 c-3 -7 -5 -2 -5 12 0 14 2 19 5 13 2 -7 2
-19 0 -25z m0 -60 c-3 -7 -5 -2 -5 12 0 14 2 19 5 13 2 -7 2 -19 0 -25z m0
-60 c-3 -7 -5 -2 -5 12 0 14 2 19 5 13 2 -7 2 -19 0 -25z m0 -60 c-3 -7 -5 -2
-5 12 0 14 2 19 5 13 2 -7 2 -19 0 -25z m0 -60 c-3 -7 -5 -2 -5 12 0 14 2 19
5 13 2 -7 2 -19 0 -25z m0 -60 c-3 -7 -5 -2 -5 12 0 14 2 19 5 13 2 -7 2 -19
0 -25z m0 -60 c-3 -7 -5 -2 -5 12 0 14 2 19 5 13 2 -7 2 -19 0 -25z m0 -60
c-3 -7 -5 -2 -5 12 0 14 2 19 5 13 2 -7 2 -19 0 -25z m0 -60 c-3 -7 -5 -2 -5
12 0 14 2 19 5 13 2 -7 2 -19 0 -25z m0 -60 c-3 -7 -5 -2 -5 12 0 14 2 19 5
13 2 -7 2 -19 0 -25z m0 -60 c-3 -7 -5 -2 -5 12 0 14 2 19 5 13 2 -7 2 -19 0
-25z m0 -60 c-3 -7 -5 -2 -5 12 0 14 2 19 5 13 2 -7 2 -19 0 -25z m-6524 -35
c-7 -2 -21 -2 -30 0 -10 3 -4 5 12 5 17 0 24 -2 18 -5z m6524 -25 c-3 -7 -5
-2 -5 12 0 14 2 19 5 13 2 -7 2 -19 0 -25z m0 -60 c-3 -7 -5 -2 -5 12 0 14 2
19 5 13 2 -7 2 -19 0 -25z m0 -60 c-3 -7 -5 -2 -5 12 0 14 2 19 5 13 2 -7 2
-19 0 -25z m0 -60 c-3 -7 -5 -2 -5 12 0 14 2 19 5 13 2 -7 2 -19 0 -25z m0
-60 c-3 -7 -5 -2 -5 12 0 14 2 19 5 13 2 -7 2 -19 0 -25z m0 -60 c-3 -7 -5 -2
-5 12 0 14 2 19 5 13 2 -7 2 -19 0 -25z m0 -60 c-3 -7 -5 -2 -5 12 0 14 2 19
5 13 2 -7 2 -19 0 -25z m0 -60 c-3 -7 -5 -2 -5 12 0 14 2 19 5 13 2 -7 2 -19
0 -25z m0 -60 c-3 -7 -5 -2 -5 12 0 14 2 19 5 13 2 -7 2 -19 0 -25z m0 -60
c-3 -7 -5 -2 -5 12 0 14 2 19 5 13 2 -7 2 -19 0 -25z m0 -60 c-3 -7 -5 -2 -5
12 0 14 2 19 5 13 2 -7 2 -19 0 -25z m0 -60 c-3 -7 -5 -2 -5 12 0 14 2 19 5
13 2 -7 2 -19 0 -25z m0 -60 c-3 -7 -5 -2 -5 12 0 14 2 19 5 13 2 -7 2 -19 0
-25z m-6524 -5 c-7 -2 -21 -2 -30 0 -10 3 -4 5 12 5 17 0 24 -2 18 -5z m6524
-55 c-3 -7 -5 -2 -5 12 0 14 2 19 5 13 2 -7 2 -19 0 -25z m0 -60 c-3 -7 -5 -2
-5 12 0 14 2 19 5 13 2 -7 2 -19 0 -25z m0 -60 c-3 -7 -5 -2 -5 12 0 14 2 19
5 13 2 -7 2 -19 0 -25z m0 -60 c-3 -7 -5 -2 -5 12 0 14 2 19 5 13 2 -7 2 -19
0 -25z m0 -60 c-3 -7 -5 -2 -5 12 0 14 2 19 5 13 2 -7 2 -19 0 -25z m0 -60
c-3 -7 -5 -2 -5 12 0 14 2 19 5 13 2 -7 2 -19 0 -25z m0 -60 c-3 -7 -5 -2 -5
12 0 14 2 19 5 13 2 -7 2 -19 0 -25z m0 -60 c-3 -7 -5 -2 -5 12 0 14 2 19 5
13 2 -7 2 -19 0 -25z m0 -60 c-3 -7 -5 -2 -5 12 0 14 2 19 5 13 2 -7 2 -19 0
-25z m0 -60 c-3 -7 -5 -2 -5 12 0 14 2 19 5 13 2 -7 2 -19 0 -25z m0 -60 c-3
-7 -5 -2 -5 12 0 14 2 19 5 13 2 -7 2 -19 0 -25z m0 -60 c-3 -7 -5 -2 -5 12 0
14 2 19 5 13 2 -7 2 -19 0 -25z m0 -60 c-3 -7 -5 -2 -5 12 0 14 2 19 5 13 2
-7 2 -19 0 -25z m-6524 15 c-7 -2 -21 -2 -30 0 -10 3 -4 5 12 5 17 0 24 -2 18
-5z m6524 -75 c-3 -7 -5 -2 -5 12 0 14 2 19 5 13 2 -7 2 -19 0 -25z m0 -60
c-3 -7 -5 -2 -5 12 0 14 2 19 5 13 2 -7 2 -19 0 -25z m0 -60 c-3 -7 -5 -2 -5
12 0 14 2 19 5 13 2 -7 2 -19 0 -25z m0 -60 c-3 -7 -5 -2 -5 12 0 14 2 19 5
13 2 -7 2 -19 0 -25z m0 -60 c-3 -7 -5 -2 -5 12 0 14 2 19 5 13 2 -7 2 -19 0
-25z m0 -60 c-3 -7 -5 -2 -5 12 0 14 2 19 5 13 2 -7 2 -19 0 -25z m0 -60 c-3
-7 -5 -2 -5 12 0 14 2 19 5 13 2 -7 2 -19 0 -25z m0 -60 c-3 -7 -5 -2 -5 12 0
14 2 19 5 13 2 -7 2 -19 0 -25z m0 -60 c-3 -7 -5 -2 -5 12 0 14 2 19 5 13 2
-7 2 -19 0 -25z m0 -60 c-3 -7 -5 -2 -5 12 0 14 2 19 5 13 2 -7 2 -19 0 -25z
m0 -60 c-3 -7 -5 -2 -5 12 0 14 2 19 5 13 2 -7 2 -19 0 -25z m3826 -58 c2102
0 4021 0 4265 0 294 0 442 -3 442 -10 0 -7 -149 -10 -445 -10 l-445 0 -1 -22
-2 -23 -4 22 -4 23 -1070 0 -1069 0 -1 -22 -2 -23 -4 22 -4 23 -1070 0 -1069
0 -1 -22 -2 -23 -4 23 -4 22 -1070 0 -1069 0 -1 -22 -2 -23 -4 23 -4 22 -595
0 -594 0 1 28 c1 16 3 20 6 10 4 -17 195 -18 3826 -18z m-4008 -10 c4 -7 -129
-10 -384 -10 l-391 0 -1 -22 -2 -23 -4 22 -4 23 -1070 0 -1069 0 -1 -22 -2
-23 -4 23 -4 22 -1070 0 -1069 0 -1 -22 -2 -23 -4 23 -4 22 -610 0 c-404 0
-608 3 -604 10 9 14 6292 14 6300 0z m-6342 -7 c-7 -2 -21 -2 -30 0 -10 3 -4
5 12 5 17 0 24 -2 18 -5z"/>
<path d="M1196 7124 c-9 -22 -8 -24 9 -24 8 0 15 6 15 14 0 22 -17 28 -24 10z"/>
<path d="M1880 7130 c0 -13 7 -20 20 -20 13 0 20 7 20 20 0 13 -7 20 -20 20
-13 0 -20 -7 -20 -20z"/>
<path d="M221 7116 c-16 -19 -8 -46 13 -46 20 0 29 31 13 47 -12 12 -16 12
-26 -1z"/>
<path d="M313 7093 c-18 -7 -16 -23 2 -23 8 0 15 7 15 15 0 8 -1 15 -2 14 -2
0 -9 -3 -15 -6z"/>
<path d="M467 7124 c-13 -13 -7 -24 14 -24 11 0 19 5 17 12 -5 14 -22 21 -31
12z"/>
<path d="M984 7115 c-8 -21 3 -47 19 -43 6 3 13 14 15 25 4 24 -26 40 -34 18z"/>
<path d="M1073 7093 c-18 -6 -16 -23 1 -23 17 0 30 16 19 23 -5 2 -14 2 -20 0z"/>
<path d="M1481 7112 c-5 -10 -6 -24 -1 -31 11 -19 40 -6 40 18 0 26 -27 35
-39 13z"/>
<path d="M1967 7124 c-13 -13 -7 -24 14 -24 11 0 19 5 17 12 -5 14 -22 21 -31
12z"/>
<path d="M2057 7124 c-4 -4 -7 -18 -7 -31 0 -18 5 -24 18 -21 10 2 17 12 17
27 0 24 -15 37 -28 25z"/>
<path d="M2134 7116 c-9 -22 2 -46 21 -46 12 0 15 8 13 27 -3 30 -25 42 -34
19z"/>
<path d="M894 6856 c-10 -27 1 -51 24 -54 21 -3 23 0 20 30 -3 35 -33 52 -44
24z"/>
<path d="M1414 6856 c-10 -27 1 -51 24 -54 21 -3 23 0 20 30 -3 35 -33 52 -44
24z"/>
<path d="M304 6846 c-7 -31 1 -46 26 -46 25 0 33 15 26 46 -4 15 -14 24 -26
24 -12 0 -22 -9 -26 -24z"/>
<path d="M1556 6852 c-10 -30 4 -53 28 -50 31 4 30 62 -1 66 -14 2 -23 -3 -27
-16z"/>
<path d="M2388 6822 c-22 -4 -24 -32 -3 -32 9 0 18 7 22 15 7 19 3 22 -19 17z"/>
<path d="M202 6103 c5 -25 28 -28 28 -4 0 12 -6 21 -16 21 -9 0 -14 -7 -12
-17z"/>
<path d="M3152 6103 c5 -25 28 -28 28 -4 0 12 -6 21 -16 21 -9 0 -14 -7 -12
-17z"/>
<path d="M410 5810 c0 -15 5 -20 18 -18 9 2 17 10 17 18 0 8 -8 16 -17 18 -13
2 -18 -3 -18 -18z"/>
<path d="M1204 5817 c-9 -25 0 -62 16 -62 10 0 15 10 15 34 0 36 -21 54 -31
28z"/>
<path d="M862 5778 c2 -13 10 -23 18 -23 8 0 16 10 18 23 3 17 -2 22 -18 22
-16 0 -21 -5 -18 -22z"/>
<path d="M2910 5775 c0 -20 4 -26 18 -23 9 2 17 12 17 23 0 11 -8 21 -17 23
-14 3 -18 -3 -18 -23z"/>
<path d="M3168 5788 c-7 -19 2 -38 18 -38 8 0 14 10 14 25 0 26 -24 35 -32 13z"/>
<path d="M3252 5778 c2 -13 10 -23 18 -23 8 0 16 10 18 23 3 17 -2 22 -18 22
-16 0 -21 -5 -18 -22z"/>
<path d="M130 5170 c0 -23 4 -30 20 -30 16 0 20 7 20 30 0 23 -4 30 -20 30
-16 0 -20 -7 -20 -30z"/>
<path d="M1052 5158 c2 -13 10 -23 18 -23 8 0 16 10 18 23 3 17 -2 22 -18 22
-16 0 -21 -5 -18 -22z"/>
<path d="M1744 5197 c-9 -25 0 -62 16 -62 10 0 15 10 15 34 0 36 -21 54 -31
28z"/>
<path d="M2140 5171 c0 -26 5 -41 13 -41 25 0 39 18 35 46 -2 21 -9 30 -25 32
-21 3 -23 -1 -23 -37z"/>
<path d="M2610 5155 c0 -26 24 -35 32 -12 7 18 -2 37 -18 37 -8 0 -14 -10 -14
-25z"/>
<path d="M3214 5197 c-9 -25 0 -62 16 -62 10 0 15 10 15 34 0 36 -21 54 -31
28z"/>
<path d="M230 5139 c0 -5 5 -7 10 -4 6 3 10 8 10 11 0 2 -4 4 -10 4 -5 0 -10
-5 -10 -11z"/>
<path d="M690 5155 c0 -28 24 -34 34 -9 8 20 -1 34 -20 34 -8 0 -14 -10 -14
-25z"/>
<path d="M848 5173 c6 -2 18 -2 25 0 6 3 1 5 -13 5 -14 0 -19 -2 -12 -5z"/>
<path d="M1138 5173 c6 -2 18 -2 25 0 6 3 1 5 -13 5 -14 0 -19 -2 -12 -5z"/>
<path d="M2248 5173 c7 -3 16 -2 19 1 4 3 -2 6 -13 5 -11 0 -14 -3 -6 -6z"/>
<path d="M2408 5173 c7 -3 16 -2 19 1 4 3 -2 6 -13 5 -11 0 -14 -3 -6 -6z"/>
<path d="M2695 5170 c4 -6 11 -8 16 -5 14 9 11 15 -7 15 -8 0 -12 -5 -9 -10z"/>
<path d="M1230 4750 c0 -15 5 -20 18 -18 9 2 17 10 17 18 0 8 -8 16 -17 18
-13 2 -18 -3 -18 -18z"/>
<path d="M4812 4718 c2 -13 8 -23 13 -23 6 0 11 10 13 23 2 15 -2 22 -13 22
-11 0 -15 -7 -13 -22z"/>
<path d="M1320 4730 c0 -5 7 -7 15 -4 8 4 15 8 15 10 0 2 -7 4 -15 4 -8 0 -15
-4 -15 -10z"/>
<path d="M1520 4700 c0 -5 4 -10 9 -10 6 0 13 5 16 10 3 6 -1 10 -9 10 -9 0
-16 -4 -16 -10z"/>
<path d="M1840 4720 c0 -15 5 -20 18 -18 9 2 17 10 17 18 0 8 -8 16 -17 18
-13 2 -18 -3 -18 -18z"/>
<path d="M2080 4721 c0 -11 5 -23 11 -27 14 -8 29 14 22 33 -8 20 -33 16 -33
-6z"/>
<path d="M4908 4733 c7 -3 16 -2 19 1 4 3 -2 6 -13 5 -11 0 -14 -3 -6 -6z"/>
<path d="M5135 4730 c4 -6 11 -8 16 -5 14 9 11 15 -7 15 -8 0 -12 -5 -9 -10z"/>
<path d="M4636 4543 c-12 -12 -6 -43 9 -43 8 0 15 9 15 19 0 21 -13 34 -24 24z"/>
<path d="M1565 4540 c-3 -5 1 -10 10 -10 9 0 13 5 10 10 -3 6 -8 10 -10 10 -2
0 -7 -4 -10 -10z"/>
<path d="M1717 4544 c-4 -4 -7 -16 -7 -26 0 -20 25 -25 36 -7 8 13 -19 43 -29
33z"/>
<path d="M2254 4536 c-7 -19 3 -36 22 -36 10 0 14 8 12 22 -4 26 -26 36 -34
14z"/>
<path d="M2595 4540 c-3 -5 1 -10 10 -10 9 0 13 5 10 10 -3 6 -8 10 -10 10 -2
0 -7 -4 -10 -10z"/>
<path d="M2813 4534 c-8 -21 13 -42 28 -27 13 13 5 43 -11 43 -6 0 -13 -7 -17
-16z"/>
<path d="M2984 4536 c-7 -19 3 -36 22 -36 10 0 14 8 12 22 -4 26 -26 36 -34
14z"/>
<path d="M3265 4540 c-3 -5 3 -10 15 -10 12 0 18 5 15 10 -3 6 -10 10 -15 10
-5 0 -12 -4 -15 -10z"/>
<path d="M3375 4540 c-3 -5 3 -10 15 -10 12 0 18 5 15 10 -3 6 -10 10 -15 10
-5 0 -12 -4 -15 -10z"/>
<path d="M4705 4540 c-3 -5 3 -10 15 -10 12 0 18 5 15 10 -3 6 -10 10 -15 10
-5 0 -12 -4 -15 -10z"/>
<path d="M5240 4510 c0 -5 7 -10 15 -10 8 0 15 5 15 10 0 6 -7 10 -15 10 -8 0
-15 -4 -15 -10z"/>
<path d="M5355 4540 c-3 -5 1 -10 10 -10 9 0 13 5 10 10 -3 6 -8 10 -10 10 -2
0 -7 -4 -10 -10z"/>
<path d="M4770 4510 c0 -5 7 -10 15 -10 8 0 15 5 15 10 0 6 -7 10 -15 10 -8 0
-15 -4 -15 -10z"/>
</g>
</svg>
